<?xml version="1.0" encoding="UTF-8" standalone="no"?>
<svg
   xmlns:a="http://ns.adobe.com/AdobeSVGViewerExtensions/3.0/"
   xmlns:dc="http://purl.org/dc/elements/1.1/"
   xmlns:cc="http://creativecommons.org/ns#"
   xmlns:rdf="http://www.w3.org/1999/02/22-rdf-syntax-ns#"
   xmlns:svg="http://www.w3.org/2000/svg"
   xmlns="http://www.w3.org/2000/svg"
   xmlns:xlink="http://www.w3.org/1999/xlink"
   version="1.1"
   id="svg548"
   xml:space="preserve"
   enable-background="new 0 0 256 256"
   overflow="visible"
   viewBox="0 0 256 256"
   height="48px"
   width="48px"><metadata
     id="metadata8594"><rdf:RDF><cc:Work
         rdf:about=""><dc:format>image/svg+xml</dc:format><dc:type
           rdf:resource="http://purl.org/dc/dcmitype/StillImage" /><dc:title></dc:title><cc:license
           rdf:resource="http://unlicense.org/UNLICENSE" /><dc:language>en</dc:language></cc:Work></rdf:RDF></metadata><defs
     id="defs600"><color-profile
       id="color-profile4"
       xlink:href="/usr/share/color/icc/colord/sRGB.icc"
       name="sRGB" /><linearGradient
       spreadMethod="pad"
       id="linearGradient9284"
       gradientUnits="userSpaceOnUse"
       x1="127.5151"
       y1="12.998"
       x2="127.5151"
       y2="101.9984"><stop
         offset="0.0056"
         style="stop-color: rgb(255, 255, 255);"
         id="stop9280" /><stop
         offset="1"
         style="stop-color:#fffd56;stop-opacity:1"
         id="stop9282" /><a:midPointStop
         offset="0.0056"
         style="stop-color:#FFFFFF"
         id="midPointStop591" /><a:midPointStop
         offset="0.5"
         style="stop-color:#FFFFFF"
         id="midPointStop592" /><a:midPointStop
         offset="1"
         style="stop-color:#FF5656"
         id="midPointStop593" /></linearGradient></defs><g
     stroke="#000000"
     id="Layer_1"><path
       id="path550"
       d="M256,256H0V0h256V256z"
       stroke="none"
       fill="none" /></g><g
     stroke="#000000"
     id="Layer_2"><path
       opacity="0.2"
       stroke="none"
       id="path552"
       d="M11.285,130.645C11.285,198.111,66.174,253,133.643,253C201.11,253,256,198.111,256,130.645    C256,63.175,201.11,8.286,133.643,8.286C66.174,8.286,11.285,63.175,11.285,130.645z" /><g
       id="g553"
       display="none"><path
         opacity="0.2"
         stroke="none"
         id="path554"
         d="M133.429,53.076l8.095,6.894l83.157,70.817l-96.107,81.847     c0,0,0-30.299,0-34.207c-4.186-1.066-77.223-19.684-77.223-19.684v-56.355c0,0,73.011-18.221,77.223-19.272     c0-3.926,0-34.175,0-34.175L133.429,53.076z"
         display="inline" /><path
         fill="#0066CC"
         stroke="none"
         id="path555"
         d="M222.918,123.788L121.725,37.611v4.33c0,0,0,29.768,0,32.613     c-2.913,0.727-77.221,19.272-77.221,19.272v59.473c0,0,74.325,18.943,77.221,19.682c0,2.832,0,36.984,0,36.984L222.918,123.788z"
         display="inline" /><linearGradient
         y2="123.7881"
         x2="207.7148"
         y1="123.7881"
         x1="54.3604"
         gradientUnits="userSpaceOnUse"
         id="XMLID_1_"><stop
           id="stop557"
           style="stop-color: rgb(51, 153, 255);"
           offset="0" /><stop
           id="stop558"
           style="stop-color: rgb(153, 204, 255);"
           offset="1" /><a:midPointStop
           id="midPointStop559"
           style="stop-color:#3399FF"
           offset="0" /><a:midPointStop
           id="midPointStop560"
           style="stop-color:#3399FF"
           offset="0.5" /><a:midPointStop
           id="midPointStop561"
           style="stop-color:#99CCFF"
           offset="1" /></linearGradient><path
         fill="url(#XMLID_1_)"
         stroke="none"
         id="path562"
         d="M54.36,101.525l77.223-19.273v-23.3l38.065,32.418l38.066,32.417     l-38.066,32.417l-38.065,32.418V165.32L54.36,145.639V101.525z"
         display="inline" /><linearGradient
         y2="103.7712"
         x2="158.657"
         y1="88.6768"
         x1="173.751"
         gradientUnits="userSpaceOnUse"
         id="XMLID_2_"><stop
           id="stop564"
           style="stop-color: rgb(255, 255, 255);"
           offset="0" /><stop
           id="stop565"
           style="stop-color: rgb(251, 253, 255);"
           offset="0.2111" /><stop
           id="stop566"
           style="stop-color: rgb(240, 248, 255);"
           offset="0.4061" /><stop
           id="stop567"
           style="stop-color: rgb(221, 238, 255);"
           offset="0.5949" /><stop
           id="stop568"
           style="stop-color: rgb(195, 225, 255);"
           offset="0.7797" /><stop
           id="stop569"
           style="stop-color: rgb(162, 208, 255);"
           offset="0.9601" /><stop
           id="stop570"
           style="stop-color: rgb(153, 204, 255);"
           offset="1" /><a:midPointStop
           id="midPointStop571"
           style="stop-color:#FFFFFF"
           offset="0" /><a:midPointStop
           id="midPointStop572"
           style="stop-color:#FFFFFF"
           offset="0.7232" /><a:midPointStop
           id="midPointStop573"
           style="stop-color:#99CCFF"
           offset="1" /></linearGradient><path
         opacity="0.7"
         fill="url(#XMLID_2_)"
         stroke="none"
         id="path574"
         d="M133.546,69.178c0-1.388,0-2.702,0-3.847     c7.393,6.296,33.21,28.283,33.21,28.283s30.868,26.287,35.433,30.174c-1.435,1.222-8.027,6.836-16.618,14.152     C175.345,107.764,156.768,83.264,133.546,69.178z"
         display="inline" /></g><path
       style="fill:#808000"
       fill="#660000"
       stroke="none"
       id="path575"
       d="M6.449,125.798c0,67.467,54.889,122.356,122.357,122.356    c67.468,0,122.357-54.889,122.357-122.356c0-67.469-54.89-122.358-122.357-122.358C61.338,3.44,6.449,58.33,6.449,125.798z" /><path
       style="fill:#808000"
       fill="#660000"
       stroke="none"
       id="path576"
       d="M128.807,5.44C62.441,5.44,8.449,59.433,8.449,125.798    c0,66.364,53.992,120.356,120.357,120.356s120.357-53.992,120.357-120.356C249.164,59.433,195.172,5.44,128.807,5.44z" /><radialGradient
       xlink:href="#XMLID_4_"
       gradientUnits="userSpaceOnUse"
       fy="55.0098"
       fx="50.585899"
       r="259.5079"
       cy="55.0098"
       cx="50.585899"
       id="XMLID_3_"><stop
         id="stop578"
         style="stop-color:#ffffa5;stop-opacity:1"
         offset="0.0056" /><stop
         id="stop579"
         style="stop-color:#fffd37;stop-opacity:1"
         offset="0.5843" /><stop
         id="stop580"
         style="stop-color:#ffdc00;stop-opacity:1"
         offset="1" /><a:midPointStop
         id="midPointStop581"
         style="stop-color:#FF9999"
         offset="0.0056" /><a:midPointStop
         id="midPointStop582"
         style="stop-color:#FF9999"
         offset="0.5" /><a:midPointStop
         id="midPointStop583"
         style="stop-color:#FF0000"
         offset="0.5843" /><a:midPointStop
         id="midPointStop584"
         style="stop-color:#FF0000"
         offset="0.5" /><a:midPointStop
         id="midPointStop585"
         style="stop-color:#990000"
         offset="1" /></radialGradient><path
       style="fill-opacity:1.0"
       fill="url(#XMLID_3_)"
       stroke="none"
       id="path586"
       d="M14.449,125.798c0,63.157,51.199,114.356,114.357,114.356    s114.357-51.199,114.357-114.356c0-63.158-51.199-114.358-114.357-114.358S14.449,62.64,14.449,125.798z" /><path
       opacity="0.5"
       fill="#FFFFFF"
       stroke="none"
       id="path587"
       d="M17.449,129.813c0-63.158,51.199-114.358,114.357-114.358    c36.628,0,69.23,17.222,90.16,44.007c-20.735-29.068-54.733-48.022-93.16-48.022c-63.158,0-114.357,51.2-114.357,114.358    c0,26.53,9.037,50.946,24.196,70.348C25.301,177.439,17.449,154.543,17.449,129.813z" /><linearGradient
       xlink:href="#linearGradient9284"
       y2="101.9984"
       x2="127.5151"
       y1="12.998"
       x1="127.5151"
       gradientUnits="userSpaceOnUse"
       id="XMLID_4_"><stop
         id="stop589"
         style="stop-color: rgb(255, 255, 255);"
         offset="0.0056" /><stop
         id="stop590"
         style="stop-color: rgb(255, 86, 86);"
         offset="1" /><a:midPointStop
         id="midPointStop591"
         style="stop-color:#FFFFFF"
         offset="0.0056" /><a:midPointStop
         id="midPointStop592"
         style="stop-color:#FFFFFF"
         offset="0.5" /><a:midPointStop
         id="midPointStop593"
         style="stop-color:#FF5656"
         offset="1" /></linearGradient><path
       style="fill:#808000;stroke:none"
       id="path597"
       d="m 192.807,108 c 0,-1.657 -1.246,-2.99999 -2.783,-2.99999 H 67.589 c -1.537,0 -2.782,1.34299 -2.782,2.99999 v 33 c 0,1.657 1.245,3 2.782,3 h 122.435 c 1.537,0 2.783,-1.343 2.783,-3 z" /><path
       style="fill:#ffffff;stroke:none"
       id="path598"
       d="m 67.589,141 v -33 h 122.435 v 33 z" /></g></svg>