<?xml version="1.0" encoding="UTF-8" standalone="no"?>
<svg
   xmlns:dc="http://purl.org/dc/elements/1.1/"
   xmlns:cc="http://creativecommons.org/ns#"
   xmlns:rdf="http://www.w3.org/1999/02/22-rdf-syntax-ns#"
   xmlns:svg="http://www.w3.org/2000/svg"
   xmlns="http://www.w3.org/2000/svg"
   xmlns:xlink="http://www.w3.org/1999/xlink"
   id="svg8"
   version="1.1"
   viewBox="0 0 16.933333 16.933334"
   height="64"
   width="64">
  <defs
     id="defs2">
    <color-profile
       id="color-profile2"
       xlink:href="/usr/share/color/icc/colord/sRGB.icc"
       name="sRGB" />
  </defs>
  <metadata
     id="metadata5">
    <rdf:RDF>
      <cc:Work
         rdf:about="">
        <dc:format>image/svg+xml</dc:format>
        <dc:type
           rdf:resource="http://purl.org/dc/dcmitype/StillImage" />
        <dc:title></dc:title>
        <dc:language>en</dc:language>
        <cc:license
           rdf:resource="http://unlicense.org/UNLICENSE" />
      </cc:Work>
    </rdf:RDF>
  </metadata>
  <g
     transform="translate(0,-280.06666)"
     id="layer1">
    <rect
       rx="2.1166668"
       y="281.58801"
       x="1.5213475"
       height="13.890638"
       width="13.890638"
       id="rect21962"
       style="opacity:1;fill:#000000;fill-opacity:0.3764706;fill-rule:evenodd;stroke:#ffffff;stroke-width:0.92604166;stroke-linejoin:round;stroke-miterlimit:4;stroke-dasharray:none;stroke-dashoffset:0;stroke-opacity:1" />
    <g
       transform="matrix(0.15309741,0,0,0.15309741,2.2114305,282.92032)"
       id="g1">
      <path
         d="m 69.815956,44.416513 c 0,3.265824 -2.647468,5.913283 -5.913295,5.913283 -3.265824,0 -5.913293,-2.647459 -5.913293,-5.913283 3.586793,-0.0089 8.146902,0.0089 11.826588,0 z m -44.546837,0 c 0,3.265824 -2.647473,5.913283 -5.913298,5.913283 -3.265823,0 -5.913297,-2.647459 -5.913297,-5.913283 3.586801,-0.0089 8.146911,0.0089 11.826595,0 z m 13.026713,-21.420356 -1.821983,0.006 c -3.204264,0.01788 -4.970515,0.09178 -6.773948,0.0882 -0.415669,-0.001 -1.23229,0.163301 -1.56313,0.260446 -1.590881,0.466359 -2.350148,1.157107 -2.604038,1.415825 l -6.215708,6.333692 h 36.060131 l -9.456717,-7.251307 c -1.187298,-0.7752 -1.489798,-0.781218 -3.270049,-0.807353 z m -18.978807,8.103977 c 0,0 -6.356651,0.974109 -11.1572303,1.711016 -0.777532,0.119495 -3.0885271,0.437304 -3.4961724,0.611034 -0.7805266,0.332411 -1.3721858,0.958851 -1.4020567,1.317308 -0.1525721,1.830749 -0.4493762,5.161207 -0.019668,7.489753 0.3761651,0.9028 0.7184607,1.258514 1.2808506,1.538777 0.5236957,0.261041 0.855958,0.427888 1.9291736,0.483135 3.9188842,0.20204 6.9907122,0.165386 6.9907122,0.165386 H 25.26923 l 32.720138,-3e-5 h 11.826588 c 0,0 5.710796,-0.147505 6.472031,-0.364951 0.441726,-0.104 0.802055,-1.029626 1.048966,-1.717899 0.655425,-1.826966 1.204936,-4.428592 1.339238,-5.469393 0.07607,-0.513382 -0.07176,-0.931465 -0.223949,-1.411711 -0.309768,-0.633443 -0.494275,-1.053494 -1.465768,-1.265188 -4.885309,-0.886768 -7.333063,-1.143309 -21.609332,-3.087088 0,0 -36.060128,-1.49e-4 -36.060128,0 z"
         style="opacity:1;fill:#ffffff;fill-opacity:1;fill-rule:evenodd;stroke:none;stroke-width:3.72916389;stroke-linejoin:round;stroke-miterlimit:4;stroke-dasharray:none;stroke-dashoffset:0;stroke-opacity:1"
         id="path40591-1-1" />
      <g
         id="text40878"
         style="font-style:normal;font-variant:normal;font-weight:bold;font-stretch:normal;font-size:13.82562065px;line-height:43.20506668px;font-family:Roboto;-inkscape-font-specification:'Roboto Bold';letter-spacing:0px;word-spacing:0px;fill:#ffffff;fill-opacity:1;stroke:none;stroke-width:1.72820258px;stroke-linecap:butt;stroke-linejoin:miter;stroke-opacity:1"
         aria-label="Calculating">
        <path
           id="path8430"
           style="font-style:normal;font-variant:normal;font-weight:bold;font-stretch:normal;font-size:17.28202629px;font-family:'Roboto Condensed';-inkscape-font-specification:'Roboto Condensed, Bold';letter-spacing:-0.34564051px;fill:#ffffff;fill-opacity:1;stroke-width:1.72820258px"
           d="m 12.878385,11.651858 q -0.09282,2.101183 -1.181388,3.18131 -1.088566,1.080127 -3.0716105,1.080127 -2.0843069,0 -3.1981875,-1.367036 Q 4.3217569,13.170786 4.3217569,10.6308 V 8.5633705 q 0,-2.5315468 1.1476345,-3.8985821 1.1476346,-1.3754738 3.189749,-1.3754738 2.0083606,0 3.0462946,1.1223191 1.046373,1.1223191 1.189827,3.2235029 H 10.405908 Q 10.372154,6.3356093 10.00086,5.8461769 9.6380052,5.348306 8.6591404,5.348306 q -0.9957417,0 -1.4092277,0.7003946 -0.413486,0.6919562 -0.4388015,2.2868307 v 2.3205847 q 0,1.831152 0.4050475,2.51467 0.413486,0.683517 1.4092278,0.683517 0.9788647,0 1.3501583,-0.472555 0.3712932,-0.480994 0.4219242,-1.72989 z" />
        <path
           id="path8432"
           style="font-style:normal;font-variant:normal;font-weight:bold;font-stretch:normal;font-size:17.28202629px;font-family:'Roboto Condensed';-inkscape-font-specification:'Roboto Condensed, Bold';letter-spacing:-0.34564051px;fill:#ffffff;fill-opacity:1;stroke-width:1.72820258px"
           d="m 18.279356,15.744525 q -0.101262,-0.210962 -0.202524,-0.708833 -0.641325,0.877603 -1.738329,0.877603 -1.147634,0 -1.907098,-0.759464 -0.751026,-0.759464 -0.751026,-1.966168 0,-1.434544 0.911357,-2.219323 0.919795,-0.78478 2.641247,-0.801657 h 0.72571 V 9.4325349 q 0,-0.6160097 -0.210962,-0.8691644 -0.210962,-0.2531547 -0.61601,-0.2531547 -0.894479,0 -0.894479,1.0463727 h -2.388093 q 0,-1.2657734 0.945111,-2.0843069 0.953549,-0.826972 2.404969,-0.826972 1.502051,0 2.320585,0.7847796 0.826972,0.776341 0.826972,2.2277612 v 4.2951906 q 0.01688,1.181389 0.337539,1.84803 v 0.143454 z M 16.870128,14.03995 q 0.396609,0 0.675079,-0.160331 0.278471,-0.160332 0.413486,-0.379732 v -1.89866 h -0.573817 q -0.607571,0 -0.961988,0.38817 -0.345978,0.388171 -0.345978,1.037934 0,1.012619 0.793218,1.012619 z" />
        <path
           id="path8434"
           style="font-style:normal;font-variant:normal;font-weight:bold;font-stretch:normal;font-size:17.28202629px;font-family:'Roboto Condensed';-inkscape-font-specification:'Roboto Condensed, Bold';letter-spacing:-0.34564051px;fill:#ffffff;fill-opacity:1;stroke-width:1.72820258px"
           d="M 24.237266,15.744525 H 21.840735 V 2.7830052 h 2.396531 z" />
        <path
           id="path8436"
           style="font-style:normal;font-variant:normal;font-weight:bold;font-stretch:normal;font-size:17.28202629px;font-family:'Roboto Condensed';-inkscape-font-specification:'Roboto Condensed, Bold';letter-spacing:-0.34564051px;fill:#ffffff;fill-opacity:1;stroke-width:1.72820258px"
           d="m 29.039104,13.93025 q 1.037934,0 1.054811,-1.350159 h 2.244638 q -0.01688,1.493613 -0.919795,2.413408 -0.902919,0.919796 -2.329023,0.919796 -1.763645,0 -2.691879,-1.097004 -0.928233,-1.097004 -0.94511,-3.231941 v -0.72571 q 0,-2.1518152 0.911356,-3.2825728 0.919796,-1.1307576 2.708756,-1.1307576 1.510489,0 2.379654,0.9366724 0.869164,0.9282338 0.886041,2.641247 h -2.244638 q -0.0084,-0.7679024 -0.253155,-1.1813884 -0.244716,-0.413486 -0.810095,-0.413486 -0.624448,0 -0.89448,0.44724 -0.270031,0.4388014 -0.286908,1.7130134 v 0.928234 q 0,1.11388 0.1097,1.56112 0.1097,0.438802 0.362855,0.649764 0.253155,0.202524 0.717272,0.202524 z" />
        <path
           id="path8438"
           style="font-style:normal;font-variant:normal;font-weight:bold;font-stretch:normal;font-size:17.28202629px;font-family:'Roboto Condensed';-inkscape-font-specification:'Roboto Condensed, Bold';letter-spacing:-0.34564051px;fill:#ffffff;fill-opacity:1;stroke-width:1.72820258px"
           d="m 37.849225,14.909115 q -0.742587,1.00418 -1.991483,1.00418 -1.257335,0 -1.907099,-0.860726 -0.649764,-0.869165 -0.649764,-2.523109 V 6.6140794 h 2.388093 V 12.58853 q 0.01688,1.333281 0.886041,1.333281 0.818534,0 1.181389,-0.708833 V 6.6140794 h 2.404969 v 9.1304456 h -2.244638 z" />
        <path
           id="path8440"
           style="font-style:normal;font-variant:normal;font-weight:bold;font-stretch:normal;font-size:17.28202629px;font-family:'Roboto Condensed';-inkscape-font-specification:'Roboto Condensed, Bold';letter-spacing:-0.34564051px;fill:#ffffff;fill-opacity:1;stroke-width:1.72820258px"
           d="M 44.026537,15.744525 H 41.630006 V 2.7830052 h 2.396531 z" />
        <path
           id="path8442"
           style="font-style:normal;font-variant:normal;font-weight:bold;font-stretch:normal;font-size:17.28202629px;font-family:'Roboto Condensed';-inkscape-font-specification:'Roboto Condensed, Bold';letter-spacing:-0.34564051px;fill:#ffffff;fill-opacity:1;stroke-width:1.72820258px"
           d="m 49.86631,15.744525 q -0.101262,-0.210962 -0.202524,-0.708833 -0.641325,0.877603 -1.738328,0.877603 -1.147635,0 -1.907099,-0.759464 -0.751026,-0.759464 -0.751026,-1.966168 0,-1.434544 0.911357,-2.219323 0.919796,-0.78478 2.641247,-0.801657 h 0.725711 V 9.4325349 q 0,-0.6160097 -0.210963,-0.8691644 -0.210962,-0.2531547 -0.616009,-0.2531547 -0.89448,0 -0.89448,1.0463727 h -2.388093 q 0,-1.2657734 0.945111,-2.0843069 0.953549,-0.826972 2.404969,-0.826972 1.502052,0 2.320585,0.7847796 0.826972,0.776341 0.826972,2.2277612 v 4.2951906 q 0.01688,1.181389 0.33754,1.84803 v 0.143454 z M 48.457082,14.03995 q 0.396609,0 0.67508,-0.160331 0.27847,-0.160332 0.413486,-0.379732 v -1.89866 H 48.97183 q -0.607571,0 -0.961988,0.38817 -0.345978,0.388171 -0.345978,1.037934 0,1.012619 0.793218,1.012619 z" />
        <path
           id="path8444"
           style="font-style:normal;font-variant:normal;font-weight:bold;font-stretch:normal;font-size:17.28202629px;font-family:'Roboto Condensed';-inkscape-font-specification:'Roboto Condensed, Bold';letter-spacing:-0.34564051px;fill:#ffffff;fill-opacity:1;stroke-width:1.72820258px"
           d="m 56.094252,4.3694412 v 2.2446382 h 1.223581 v 1.7973983 h -1.223581 v 4.5314683 q 0,0.540064 0.143454,0.742588 0.151893,0.202523 0.573818,0.202523 0.345978,0 0.565378,-0.05907 l -0.01688,1.856468 q -0.607571,0.227839 -1.316404,0.227839 -2.312146,0 -2.337461,-2.649686 V 8.4114777 H 52.651348 V 6.6140794 H 53.70616 V 4.3694412 Z" />
        <path
           id="path8446"
           style="font-style:normal;font-variant:normal;font-weight:bold;font-stretch:normal;font-size:17.28202629px;font-family:'Roboto Condensed';-inkscape-font-specification:'Roboto Condensed, Bold';letter-spacing:-0.34564051px;fill:#ffffff;fill-opacity:1;stroke-width:1.72820258px"
           d="M 60.777952,15.744525 H 58.381421 V 6.6140794 h 2.396531 z M 58.271721,4.2513024 q 0,-0.5569403 0.354416,-0.9113569 0.354417,-0.3544165 0.945111,-0.3544165 0.590694,0 0.945111,0.3544165 0.354416,0.3544166 0.354416,0.9113569 0,0.5485018 -0.354416,0.9113568 -0.345978,0.3628551 -0.945111,0.3628551 -0.599133,0 -0.953549,-0.3628551 -0.345978,-0.362855 -0.345978,-0.9113568 z" />
        <path
           id="path8448"
           style="font-style:normal;font-variant:normal;font-weight:bold;font-stretch:normal;font-size:17.28202629px;font-family:'Roboto Condensed';-inkscape-font-specification:'Roboto Condensed, Bold';letter-spacing:-0.34564051px;fill:#ffffff;fill-opacity:1;stroke-width:1.72820258px"
           d="m 64.465907,6.6140794 0.06751,0.9029184 q 0.810095,-1.0716882 2.11806,-1.0716882 2.354339,0 2.421847,3.2994494 v 5.999766 H 66.676791 V 9.9219673 q 0,-0.7763411 -0.236278,-1.1223191 -0.227839,-0.3544166 -0.810095,-0.3544166 -0.649763,0 -1.012618,0.6666407 V 15.744525 H 62.221269 V 6.6140794 Z" />
        <path
           id="path8450"
           style="font-style:normal;font-variant:normal;font-weight:bold;font-stretch:normal;font-size:17.28202629px;font-family:'Roboto Condensed';-inkscape-font-specification:'Roboto Condensed, Bold';letter-spacing:-0.34564051px;fill:#ffffff;fill-opacity:1;stroke-width:1.72820258px"
           d="m 70.153788,10.900832 q 0,-2.2446381 0.810095,-3.3500803 0.810095,-1.1054421 2.269953,-1.1054421 1.240458,0 1.915538,0.9788648 l 0.09282,-0.810095 h 2.151815 v 9.1304456 q 0,1.746767 -0.978865,2.666563 -0.978865,0.928233 -2.810017,0.928233 -0.751026,0 -1.577998,-0.303785 -0.826972,-0.295347 -1.232019,-0.759464 l 0.801656,-1.653944 q 0.33754,0.354416 0.877603,0.573817 0.540064,0.227839 1.021058,0.227839 0.801656,0 1.147634,-0.38817 0.354417,-0.379732 0.362855,-1.23202 v -0.784779 q -0.683517,0.89448 -1.780521,0.89448 -1.459859,0 -2.261515,-1.130758 -0.793218,-1.139196 -0.810095,-3.206626 z m 2.388092,0.599133 q 0,1.265773 0.329101,1.848029 0.329101,0.573817 1.046373,0.573817 0.734149,0 1.088565,-0.531625 V 9.0274874 q -0.371293,-0.5822558 -1.071688,-0.5822558 -0.708833,0 -1.054811,0.5822558 -0.33754,0.5822558 -0.33754,1.8733446 z" />
      </g>
      <g
         id="text40878-7"
         style="font-style:normal;font-variant:normal;font-weight:bold;font-stretch:normal;font-size:18.43416023px;line-height:43.20506668px;font-family:Roboto;-inkscape-font-specification:'Roboto Bold';letter-spacing:0px;word-spacing:0px;fill:#ffffff;fill-opacity:1;stroke:none;stroke-width:1.72820258px;stroke-linecap:butt;stroke-linejoin:miter;stroke-opacity:1"
         aria-label="...">
        <path
           id="path8423"
           style="font-style:normal;font-variant:normal;font-weight:bold;font-stretch:normal;font-size:23.04270172px;font-family:'Roboto Condensed';-inkscape-font-specification:'Roboto Condensed, Bold';fill:#ffffff;fill-opacity:1;stroke-width:1.72820258px"
           d="m 32.301257,66.015415 q 0,-0.76509 0.506309,-1.260148 0.517561,-0.495058 1.338907,-0.495058 0.798844,0 1.327656,0.495058 0.528812,0.483807 0.528812,1.260148 0,0.787592 -0.540063,1.271399 -0.528812,0.472555 -1.316405,0.472555 -0.798843,0 -1.327655,-0.483806 -0.517561,-0.483807 -0.517561,-1.260148 z" />
        <path
           id="path8425"
           style="font-style:normal;font-variant:normal;font-weight:bold;font-stretch:normal;font-size:23.04270172px;font-family:'Roboto Condensed';-inkscape-font-specification:'Roboto Condensed, Bold';fill:#ffffff;fill-opacity:1;stroke-width:1.72820258px"
           d="m 39.007043,66.015415 q 0,-0.76509 0.50631,-1.260148 0.51756,-0.495058 1.338906,-0.495058 0.798844,0 1.327656,0.495058 0.528812,0.483807 0.528812,1.260148 0,0.787592 -0.540063,1.271399 -0.528812,0.472555 -1.316405,0.472555 -0.798843,0 -1.327655,-0.483806 -0.517561,-0.483807 -0.517561,-1.260148 z" />
        <path
           id="path8427"
           style="font-style:normal;font-variant:normal;font-weight:bold;font-stretch:normal;font-size:23.04270172px;font-family:'Roboto Condensed';-inkscape-font-specification:'Roboto Condensed, Bold';fill:#ffffff;fill-opacity:1;stroke-width:1.72820258px"
           d="m 45.712829,66.015415 q 0,-0.76509 0.50631,-1.260148 0.51756,-0.495058 1.338907,-0.495058 0.798843,0 1.327655,0.495058 0.528812,0.483807 0.528812,1.260148 0,0.787592 -0.540063,1.271399 -0.528812,0.472555 -1.316404,0.472555 -0.798844,0 -1.327656,-0.483806 -0.517561,-0.483807 -0.517561,-1.260148 z" />
      </g>
    </g>
  </g>
</svg>
