<?xml version="1.0" encoding="UTF-8" standalone="no"?>
<svg
   xmlns:dc="http://purl.org/dc/elements/1.1/"
   xmlns:cc="http://creativecommons.org/ns#"
   xmlns:rdf="http://www.w3.org/1999/02/22-rdf-syntax-ns#"
   xmlns:svg="http://www.w3.org/2000/svg"
   xmlns="http://www.w3.org/2000/svg"
   xmlns:xlink="http://www.w3.org/1999/xlink"
   id="svg8"
   version="1.1"
   viewBox="0 0 16.933333 16.933334"
   height="64"
   width="64">
  <defs
     id="defs2">
    <color-profile
       id="color-profile2"
       xlink:href="/usr/share/color/icc/colord/sRGB.icc"
       name="sRGB" />
  </defs>
  <metadata
     id="metadata5">
    <rdf:RDF>
      <cc:Work
         rdf:about="">
        <dc:format>image/svg+xml</dc:format>
        <dc:type
           rdf:resource="http://purl.org/dc/dcmitype/StillImage" />
        <dc:title></dc:title>
        <dc:language>en</dc:language>
        <cc:license
           rdf:resource="http://unlicense.org/UNLICENSE" />
      </cc:Work>
    </rdf:RDF>
  </metadata>
  <g
     transform="translate(0,-280.06666)"
     id="layer1">
    <rect
       rx="2.1166668"
       y="281.58801"
       x="1.5213475"
       height="13.890638"
       width="13.890638"
       id="rect21962"
       style="opacity:1;fill:#000000;fill-opacity:0.3764706;fill-rule:evenodd;stroke:#ffffff;stroke-width:0.92604166;stroke-linejoin:round;stroke-miterlimit:4;stroke-dasharray:none;stroke-dashoffset:0;stroke-opacity:1" />
    <g
       transform="matrix(0.15309741,0,0,0.15309741,2.2114305,282.92032)"
       id="g1">
      <path
         id="rect26835"
         d="m 14.934845,31.478369 h 51.846079 c 2.872272,0 5.184607,2.312335 5.184607,5.184607 0,2.872273 -2.312335,5.184608 -5.184607,5.184608 H 14.934845 c -2.872273,0 -5.1846075,-2.312335 -5.1846075,-5.184608 0,-2.872272 2.3123345,-5.184607 5.1846075,-5.184607 z"
         style="opacity:1;fill:#ffffff;fill-opacity:1;fill-rule:evenodd;stroke:none;stroke-width:1.37957215;stroke-linejoin:round;stroke-miterlimit:4;stroke-dasharray:none;stroke-dashoffset:0;stroke-opacity:1" />
      <path
         id="rect26835-3"
         d="m 14.934845,10.739939 h 51.846079 c 2.872272,0 5.184607,2.312335 5.184607,5.184607 0,2.872273 -2.312335,5.184608 -5.184607,5.184608 H 14.934845 c -2.872273,0 -5.1846075,-2.312335 -5.1846075,-5.184608 0,-2.872272 2.3123345,-5.184607 5.1846075,-5.184607 z"
         style="opacity:1;fill:#ffffff;fill-opacity:1;fill-rule:evenodd;stroke:none;stroke-width:1.37957215;stroke-linejoin:round;stroke-miterlimit:4;stroke-dasharray:none;stroke-dashoffset:0;stroke-opacity:1" />
      <path
         id="rect26835-5"
         d="m 14.934845,52.216801 h 51.846079 c 2.872272,0 5.184607,2.312335 5.184607,5.184607 0,2.872273 -2.312335,5.184608 -5.184607,5.184608 H 14.934845 c -2.872273,0 -5.1846075,-2.312335 -5.1846075,-5.184608 0,-2.872272 2.3123345,-5.184607 5.1846075,-5.184607 z"
         style="opacity:1;fill:#ffffff;fill-opacity:1;fill-rule:evenodd;stroke:none;stroke-width:1.37957215;stroke-linejoin:round;stroke-miterlimit:4;stroke-dasharray:none;stroke-dashoffset:0;stroke-opacity:1" />
    </g>
  </g>
</svg>
