<?xml version="1.0" encoding="UTF-8" standalone="no"?>
<svg
   xmlns:dc="http://purl.org/dc/elements/1.1/"
   xmlns:cc="http://creativecommons.org/ns#"
   xmlns:rdf="http://www.w3.org/1999/02/22-rdf-syntax-ns#"
   xmlns:svg="http://www.w3.org/2000/svg"
   xmlns="http://www.w3.org/2000/svg"
   xmlns:xlink="http://www.w3.org/1999/xlink"
   id="svg8"
   version="1.1"
   viewBox="0 0 16.933333 16.933334"
   height="64"
   width="64">
  <defs
     id="defs2">
    <color-profile
       id="color-profile3"
       xlink:href="/usr/share/color/icc/colord/sRGB.icc"
       name="sRGB" />
  </defs>
  <metadata
     id="metadata5">
    <rdf:RDF>
      <cc:Work
         rdf:about="">
        <dc:format>image/svg+xml</dc:format>
        <dc:type
           rdf:resource="http://purl.org/dc/dcmitype/StillImage" />
        <dc:title></dc:title>
        <dc:language>en</dc:language>
        <cc:license
           rdf:resource="http://unlicense.org/UNLICENSE" />
      </cc:Work>
    </rdf:RDF>
  </metadata>
  <g
     transform="translate(0,-280.06666)"
     id="layer1">
    <rect
       rx="2.1166668"
       y="281.58801"
       x="1.5213475"
       height="13.890638"
       width="13.890638"
       id="rect21962"
       style="opacity:1;fill:#000000;fill-opacity:0.3764706;fill-rule:evenodd;stroke:#ffffff;stroke-width:0.92604166;stroke-linejoin:round;stroke-miterlimit:4;stroke-dasharray:none;stroke-dashoffset:0;stroke-opacity:1" />
    <g
       id="text31093"
       style="font-style:normal;font-weight:normal;font-size:10.58333397px;line-height:6.61458349px;font-family:sans-serif;letter-spacing:0px;word-spacing:0px;fill:#ffffff;fill-opacity:1;stroke:none;stroke-width:0.26458335px;stroke-linecap:butt;stroke-linejoin:miter;stroke-opacity:1"
       aria-label="2D">
      <path
         id="path8420"
         style="font-style:normal;font-variant:normal;font-weight:bold;font-stretch:normal;font-size:9.17222214px;line-height:0px;font-family:Roboto;-inkscape-font-specification:'Roboto Bold';fill:#ffffff;fill-opacity:1;stroke-width:0.26458335px"
         d="M 7.8060696,291.83856 H 3.3364027 v -0.88677 l 2.109432,-2.24826 q 0.4344265,-0.47474 0.6404432,-0.82855 0.2104954,-0.35381 0.2104954,-0.67179 0,-0.43443 -0.2194526,-0.68075 -0.2194526,-0.25081 -0.6270074,-0.25081 -0.4389051,0 -0.6941867,0.30455 -0.250803,0.30007 -0.250803,0.79272 h -1.298801 q 0,-0.59566 0.2821534,-1.08831 0.2866319,-0.49265 0.8061523,-0.77032 0.5195204,-0.28216 1.1778781,-0.28216 1.0076905,0 1.5630398,0.48369 0.5598281,0.4837 0.5598281,1.36598 0,0.4837 -0.250803,0.9853 -0.2508029,0.50161 -0.8598958,1.16892 l -1.4824246,1.56304 h 2.8036187 z" />
      <path
         id="path8422"
         style="font-style:normal;font-variant:normal;font-weight:bold;font-stretch:normal;font-size:9.17222214px;line-height:0px;font-family:Roboto;-inkscape-font-specification:'Roboto Bold';fill:#ffffff;fill-opacity:1;stroke-width:0.26458335px"
         d="m 8.742102,291.83856 v -6.52087 h 2.006424 q 0.859895,0 1.536168,0.38964 0.680751,0.38516 1.061434,1.10174 0.380683,0.7121 0.380683,1.62126 v 0.30007 q 0,0.90916 -0.376205,1.61678 -0.371726,0.70762 -1.052476,1.09726 -0.680751,0.38964 -1.536169,0.39412 z m 1.343587,-5.43257 v 4.35322 h 0.649401 q 0.788238,0 1.20475,-0.51504 0.416512,-0.51504 0.425469,-1.47347 v -0.34485 q 0,-0.99425 -0.412034,-1.50482 -0.412033,-0.51504 -1.204749,-0.51504 z" />
    </g>
  </g>
</svg>
