<?xml version="1.0" encoding="UTF-8" standalone="no"?>
<svg
   xmlns:dc="http://purl.org/dc/elements/1.1/"
   xmlns:cc="http://creativecommons.org/ns#"
   xmlns:rdf="http://www.w3.org/1999/02/22-rdf-syntax-ns#"
   xmlns:svg="http://www.w3.org/2000/svg"
   xmlns="http://www.w3.org/2000/svg"
   xmlns:xlink="http://www.w3.org/1999/xlink"
   id="svg8"
   version="1.1"
   viewBox="0 0 16.933333 16.933334"
   height="64"
   width="64">
  <defs
     id="defs2">
    <color-profile
       id="color-profile2"
       xlink:href="/usr/share/color/icc/colord/sRGB.icc"
       name="sRGB" />
  </defs>
  <metadata
     id="metadata5">
    <rdf:RDF>
      <cc:Work
         rdf:about="">
        <dc:format>image/svg+xml</dc:format>
        <dc:type
           rdf:resource="http://purl.org/dc/dcmitype/StillImage" />
        <dc:title></dc:title>
        <dc:language>en</dc:language>
        <cc:license
           rdf:resource="http://unlicense.org/UNLICENSE" />
      </cc:Work>
    </rdf:RDF>
  </metadata>
  <g
     transform="translate(0,-280.06666)"
     id="layer1">
    <rect
       rx="2.1166668"
       y="281.58801"
       x="1.5213475"
       height="13.890638"
       width="13.890638"
       id="rect21962"
       style="opacity:1;fill:#000000;fill-opacity:0.3764706;fill-rule:evenodd;stroke:#ffffff;stroke-width:0.92604166;stroke-linejoin:round;stroke-miterlimit:4;stroke-dasharray:none;stroke-dashoffset:0;stroke-opacity:1" />
    <g
       transform="matrix(0.15309741,0,0,0.15309741,2.6391669,282.6759)"
       id="g1">
      <path
         id="polygon1"
         d="m 6,47.699 h 15.989 l 17.4,15.051 V 13.769 L 22.235,28.606 H 6 Z"
         style="fill:#ffffff;fill-opacity:1;stroke:#ffffff;stroke-width:5;stroke-linejoin:round;stroke-opacity:1" />
      <path
         id="path1"
         d="m 48.128,49.03 c 1.929,-3.096 3.062,-6.739 3.062,-10.653 0,-3.978 -1.164,-7.674 -3.147,-10.8"
         style="fill:none;stroke:#ffffff;stroke-width:5;stroke-linecap:round;stroke-opacity:1" />
      <path
         id="path2"
         d="m 55.082,20.537 c 3.695,4.986 5.884,11.157 5.884,17.84 0,6.621 -2.151,12.738 -5.788,17.699"
         style="fill:none;stroke:#ffffff;stroke-width:5;stroke-linecap:round;stroke-opacity:1" />
      <path
         id="path35877"
         d="m 61.71,62.611 c 5.267,-6.666 8.418,-15.08 8.418,-24.233 0,-9.217 -3.192,-17.682 -8.519,-24.368"
         style="fill:none;stroke:#ffffff;stroke-width:5;stroke-linecap:round;stroke-opacity:1" />
    </g>
  </g>
</svg>
