<?xml version="1.0" encoding="UTF-8" standalone="no"?>
<svg
   xmlns:dc="http://purl.org/dc/elements/1.1/"
   xmlns:cc="http://creativecommons.org/ns#"
   xmlns:rdf="http://www.w3.org/1999/02/22-rdf-syntax-ns#"
   xmlns:svg="http://www.w3.org/2000/svg"
   xmlns="http://www.w3.org/2000/svg"
   xmlns:xlink="http://www.w3.org/1999/xlink"
   id="svg8"
   version="1.1"
   viewBox="0 0 16.933333 16.933334"
   height="64"
   width="64">
  <defs
     id="defs2">
    <color-profile
       id="color-profile2"
       xlink:href="/usr/share/color/icc/colord/sRGB.icc"
       name="sRGB" />
  </defs>
  <metadata
     id="metadata5">
    <rdf:RDF>
      <cc:Work
         rdf:about="">
        <dc:format>image/svg+xml</dc:format>
        <dc:type
           rdf:resource="http://purl.org/dc/dcmitype/StillImage" />
        <dc:title></dc:title>
        <dc:language>en</dc:language>
        <cc:license
           rdf:resource="http://unlicense.org/UNLICENSE" />
      </cc:Work>
    </rdf:RDF>
  </metadata>
  <g
     transform="translate(0,-280.06666)"
     id="layer1">
    <rect
       rx="2.1166668"
       y="281.58801"
       x="1.5213475"
       height="13.890638"
       width="13.890638"
       id="rect21962"
       style="opacity:1;fill:#000000;fill-opacity:0.3764706;fill-rule:evenodd;stroke:#ffffff;stroke-width:0.92604166;stroke-linejoin:round;stroke-miterlimit:4;stroke-dasharray:none;stroke-dashoffset:0;stroke-opacity:1" />
    <g
       transform="matrix(0.15309741,0,0,0.15309741,2.2114305,282.92032)"
       id="g1">
      <path
         d="m 69.815956,44.416513 c 0,3.265824 -2.647468,5.913283 -5.913295,5.913283 -3.265824,0 -5.913293,-2.647459 -5.913293,-5.913283 3.586793,-0.0089 8.146902,0.0089 11.826588,0 z m -44.546837,0 c 0,3.265824 -2.647473,5.913283 -5.913298,5.913283 -3.265823,0 -5.913297,-2.647459 -5.913297,-5.913283 3.586801,-0.0089 8.146911,0.0089 11.826595,0 z m 13.026713,-21.420356 -1.821983,0.006 c -3.204264,0.01788 -4.970515,0.09178 -6.773948,0.0882 -0.415669,-0.001 -1.23229,0.163301 -1.56313,0.260446 -1.590881,0.466359 -2.350148,1.157107 -2.604038,1.415825 l -6.215708,6.333692 h 36.060131 l -9.456717,-7.251307 c -1.187298,-0.7752 -1.489798,-0.781218 -3.270049,-0.807353 z m -18.978807,8.103977 c 0,0 -6.356651,0.974109 -11.1572303,1.711016 -0.777532,0.119495 -3.0885271,0.437304 -3.4961724,0.611034 -0.7805266,0.332411 -1.3721858,0.958851 -1.4020567,1.317308 -0.1525721,1.830749 -0.4493762,5.161207 -0.019668,7.489753 0.3761651,0.9028 0.7184607,1.258514 1.2808506,1.538777 0.5236957,0.261041 0.855958,0.427888 1.9291736,0.483135 3.9188842,0.20204 6.9907122,0.165386 6.9907122,0.165386 H 25.26923 l 32.720138,-3e-5 h 11.826588 c 0,0 5.710796,-0.147505 6.472031,-0.364951 0.441726,-0.104 0.802055,-1.029626 1.048966,-1.717899 0.655425,-1.826966 1.204936,-4.428592 1.339238,-5.469393 0.07607,-0.513382 -0.07176,-0.931465 -0.223949,-1.411711 -0.309768,-0.633443 -0.494275,-1.053494 -1.465768,-1.265188 -4.885309,-0.886768 -7.333063,-1.143309 -21.609332,-3.087088 0,0 -36.060128,-1.49e-4 -36.060128,0 z"
         style="opacity:1;fill:#ffffff;fill-opacity:1;fill-rule:evenodd;stroke:none;stroke-width:3.72916389;stroke-linejoin:round;stroke-miterlimit:4;stroke-dasharray:none;stroke-dashoffset:0;stroke-opacity:1"
         id="path40591-1-1" />
      <g
         id="text40878"
         style="font-style:normal;font-variant:normal;font-weight:bold;font-stretch:normal;font-size:18.43416023px;line-height:43.20506668px;font-family:Roboto;-inkscape-font-specification:'Roboto Bold';letter-spacing:0px;word-spacing:0px;fill:#ffffff;fill-opacity:1;stroke:none;stroke-width:1.72820258px;stroke-linecap:butt;stroke-linejoin:miter;stroke-opacity:1"
         aria-label="Destination">
        <path
           id="path8430"
           style="font-style:normal;font-variant:normal;font-weight:bold;font-stretch:normal;font-size:17.28202629px;font-family:'Roboto Condensed';-inkscape-font-specification:'Roboto Condensed, Bold';letter-spacing:0px;fill:#ffffff;fill-opacity:1;stroke-width:1.72820258px"
           d="M 2.298206,15.744525 V 3.4580844 h 3.2488184 q 2.1518148,0 3.4260267,1.3670353 1.2826499,1.3670353 1.3079659,3.7466893 v 1.991483 q 0,2.421847 -1.2826504,3.805759 -1.2742119,1.375474 -3.5188501,1.375474 z M 4.7791219,5.5255143 v 8.1600197 h 0.742587 q 1.240458,0 1.7467673,-0.649764 0.5063094,-0.658202 0.5316249,-2.261515 V 8.6393169 q 0,-1.7214519 -0.4809939,-2.396531 Q 6.8381133,5.5592683 5.6820402,5.5255143 Z" />
        <path
           id="path8432"
           style="font-style:normal;font-variant:normal;font-weight:bold;font-stretch:normal;font-size:17.28202629px;font-family:'Roboto Condensed';-inkscape-font-specification:'Roboto Condensed, Bold';letter-spacing:0px;fill:#ffffff;fill-opacity:1;stroke-width:1.72820258px"
           d="m 15.62258,15.913295 q -1.83959,0 -2.869086,-1.097004 -1.029496,-1.097004 -1.029496,-3.139118 v -0.72571 q 0,-2.1602533 0.945111,-3.3332033 0.945111,-1.1729501 2.708755,-1.1729501 1.721452,0 2.590616,1.1054421 0.869165,1.0970037 0.886042,3.2572573 v 1.17295 h -4.75087 q 0.05063,1.012618 0.44724,1.485174 0.396609,0.464117 1.223581,0.464117 1.198266,0 1.999922,-0.818534 l 0.936672,1.442982 q -0.438801,0.607571 -1.274211,0.987303 -0.835411,0.371294 -1.814276,0.371294 z m -1.502051,-5.603157 h 2.388093 V 10.090737 Q 16.491745,9.2722036 16.23859,8.8502791 15.985435,8.4283546 15.360987,8.4283546 q -0.624448,0 -0.911357,0.44724 -0.27847,0.4472399 -0.329101,1.4345434 z" />
        <path
           id="path8434"
           style="font-style:normal;font-variant:normal;font-weight:bold;font-stretch:normal;font-size:17.28202629px;font-family:'Roboto Condensed';-inkscape-font-specification:'Roboto Condensed, Bold';letter-spacing:0px;fill:#ffffff;fill-opacity:1;stroke-width:1.72820258px"
           d="m 24.246716,13.297363 q 0,-0.303786 -0.295347,-0.55694 Q 23.66446,12.47883 22.66028,12.040028 21.183544,11.440895 20.626604,10.79957 20.078102,10.158245 20.078102,9.2046957 q 0,-1.1982655 0.860726,-1.9746065 0.869165,-0.7847796 2.295269,-0.7847796 1.502051,0 2.40497,0.7763411 0.902918,0.776341 0.902918,2.0843068 h -2.388092 q 0,-1.1138806 -0.928234,-1.1138806 -0.379732,0 -0.624448,0.2362777 -0.244717,0.2362777 -0.244717,0.6582022 0,0.3037856 0.270032,0.5400633 0.270032,0.2278393 1.274212,0.6582019 1.459859,0.540064 2.058991,1.206704 0.607572,0.658202 0.607572,1.713014 0,1.223581 -0.919796,1.966168 -0.919795,0.742587 -2.413408,0.742587 -1.00418,0 -1.772083,-0.388171 -0.767902,-0.396609 -1.206704,-1.097003 -0.430362,-0.700395 -0.430362,-1.51049 h 2.269953 q 0.01688,0.624448 0.286909,0.936672 0.27847,0.312224 0.902918,0.312224 0.961988,0 0.961988,-0.869164 z" />
        <path
           id="path8436"
           style="font-style:normal;font-variant:normal;font-weight:bold;font-stretch:normal;font-size:17.28202629px;font-family:'Roboto Condensed';-inkscape-font-specification:'Roboto Condensed, Bold';letter-spacing:0px;fill:#ffffff;fill-opacity:1;stroke-width:1.72820258px"
           d="m 30.845616,4.3694412 v 2.2446382 h 1.223581 v 1.7973983 h -1.223581 v 4.5314683 q 0,0.540064 0.143454,0.742588 0.151893,0.202523 0.573818,0.202523 0.345978,0 0.565379,-0.05907 l -0.01688,1.856468 q -0.607572,0.227839 -1.316405,0.227839 -2.312146,0 -2.337461,-2.649686 V 8.4114777 H 27.402713 V 6.6140794 h 1.054811 V 4.3694412 Z" />
        <path
           id="path8438"
           style="font-style:normal;font-variant:normal;font-weight:bold;font-stretch:normal;font-size:17.28202629px;font-family:'Roboto Condensed';-inkscape-font-specification:'Roboto Condensed, Bold';letter-spacing:0px;fill:#ffffff;fill-opacity:1;stroke-width:1.72820258px"
           d="M 35.874954,15.744525 H 33.478423 V 6.6140794 h 2.396531 z M 33.368723,4.2513024 q 0,-0.5569403 0.354417,-0.9113569 0.354416,-0.3544165 0.94511,-0.3544165 0.590695,0 0.945111,0.3544165 0.354417,0.3544166 0.354417,0.9113569 0,0.5485018 -0.354417,0.9113568 -0.345978,0.3628551 -0.945111,0.3628551 -0.599132,0 -0.953549,-0.3628551 -0.345978,-0.362855 -0.345978,-0.9113568 z" />
        <path
           id="path8440"
           style="font-style:normal;font-variant:normal;font-weight:bold;font-stretch:normal;font-size:17.28202629px;font-family:'Roboto Condensed';-inkscape-font-specification:'Roboto Condensed, Bold';letter-spacing:0px;fill:#ffffff;fill-opacity:1;stroke-width:1.72820258px"
           d="m 39.908551,6.6140794 0.06751,0.9029184 q 0.810095,-1.0716882 2.118061,-1.0716882 2.354339,0 2.421846,3.2994494 v 5.999766 H 42.119435 V 9.9219673 q 0,-0.7763411 -0.236277,-1.1223191 -0.227839,-0.3544166 -0.810095,-0.3544166 -0.649764,0 -1.012619,0.6666407 V 15.744525 H 37.663913 V 6.6140794 Z" />
        <path
           id="path8442"
           style="font-style:normal;font-variant:normal;font-weight:bold;font-stretch:normal;font-size:17.28202629px;font-family:'Roboto Condensed';-inkscape-font-specification:'Roboto Condensed, Bold';letter-spacing:0px;fill:#ffffff;fill-opacity:1;stroke-width:1.72820258px"
           d="m 50.566367,15.744525 q -0.101262,-0.210962 -0.202524,-0.708833 -0.641325,0.877603 -1.738329,0.877603 -1.147635,0 -1.907099,-0.759464 -0.751025,-0.759464 -0.751025,-1.966168 0,-1.434544 0.911357,-2.219323 0.919795,-0.78478 2.641247,-0.801657 h 0.72571 V 9.4325349 q 0,-0.6160097 -0.210962,-0.8691644 -0.210963,-0.2531547 -0.61601,-0.2531547 -0.89448,0 -0.89448,1.0463727 H 46.13616 q 0,-1.2657734 0.94511,-2.0843069 0.95355,-0.826972 2.40497,-0.826972 1.502051,0 2.320584,0.7847796 0.826972,0.776341 0.826972,2.2277612 v 4.2951906 q 0.01688,1.181389 0.33754,1.84803 v 0.143454 z M 49.157139,14.03995 q 0.396609,0 0.675079,-0.160331 0.27847,-0.160332 0.413486,-0.379732 v -1.89866 h -0.573817 q -0.607572,0 -0.961988,0.38817 -0.345978,0.388171 -0.345978,1.037934 0,1.012619 0.793218,1.012619 z" />
        <path
           id="path8444"
           style="font-style:normal;font-variant:normal;font-weight:bold;font-stretch:normal;font-size:17.28202629px;font-family:'Roboto Condensed';-inkscape-font-specification:'Roboto Condensed, Bold';letter-spacing:0px;fill:#ffffff;fill-opacity:1;stroke-width:1.72820258px"
           d="m 57.139947,4.3694412 v 2.2446382 h 1.223581 v 1.7973983 h -1.223581 v 4.5314683 q 0,0.540064 0.143454,0.742588 0.151893,0.202523 0.573817,0.202523 0.345978,0 0.565379,-0.05907 l -0.01688,1.856468 q -0.607571,0.227839 -1.316404,0.227839 -2.312146,0 -2.337462,-2.649686 V 8.4114777 H 53.697043 V 6.6140794 h 1.054811 V 4.3694412 Z" />
        <path
           id="path8446"
           style="font-style:normal;font-variant:normal;font-weight:bold;font-stretch:normal;font-size:17.28202629px;font-family:'Roboto Condensed';-inkscape-font-specification:'Roboto Condensed, Bold';letter-spacing:0px;fill:#ffffff;fill-opacity:1;stroke-width:1.72820258px"
           d="M 62.169289,15.744525 H 59.772758 V 6.6140794 h 2.396531 z M 59.663057,4.2513024 q 0,-0.5569403 0.354417,-0.9113569 0.354416,-0.3544165 0.945111,-0.3544165 0.590694,0 0.945111,0.3544165 0.354416,0.3544166 0.354416,0.9113569 0,0.5485018 -0.354416,0.9113568 -0.345978,0.3628551 -0.945111,0.3628551 -0.599133,0 -0.95355,-0.3628551 -0.345978,-0.362855 -0.345978,-0.9113568 z" />
        <path
           id="path8448"
           style="font-style:normal;font-variant:normal;font-weight:bold;font-stretch:normal;font-size:17.28202629px;font-family:'Roboto Condensed';-inkscape-font-specification:'Roboto Condensed, Bold';letter-spacing:0px;fill:#ffffff;fill-opacity:1;stroke-width:1.72820258px"
           d="m 63.738847,10.883955 q 0,-2.0758683 0.978864,-3.2572568 0.978865,-1.1813886 2.708756,-1.1813886 1.746767,0 2.725632,1.1813886 0.978864,1.1813885 0.978864,3.2741338 v 0.582256 q 0,2.084307 -0.970426,3.257257 -0.970426,1.17295 -2.717193,1.17295 -1.755206,0 -2.734071,-1.17295 -0.970426,-1.181389 -0.970426,-3.274134 z m 2.396531,0.599133 q 0,2.447162 1.307966,2.447162 1.206704,0 1.299527,-2.042115 l 0.0084,-1.00418 q 0,-1.2488964 -0.345978,-1.8480291 -0.345978,-0.6075713 -0.978864,-0.6075713 -0.607572,0 -0.95355,0.6075713 -0.337539,0.5991327 -0.337539,1.8480291 z" />
        <path
           id="path8450"
           style="font-style:normal;font-variant:normal;font-weight:bold;font-stretch:normal;font-size:17.28202629px;font-family:'Roboto Condensed';-inkscape-font-specification:'Roboto Condensed, Bold';letter-spacing:0px;fill:#ffffff;fill-opacity:1;stroke-width:1.72820258px"
           d="m 74.810147,6.6140794 0.06751,0.9029184 q 0.810095,-1.0716882 2.118061,-1.0716882 2.354339,0 2.421847,3.2994494 v 5.999766 H 77.021032 V 9.9219673 q 0,-0.7763411 -0.236278,-1.1223191 -0.227839,-0.3544166 -0.810095,-0.3544166 -0.649764,0 -1.012619,0.6666407 V 15.744525 H 72.565509 V 6.6140794 Z" />
      </g>
      <g
         id="text40878-5"
         style="font-style:normal;font-variant:normal;font-weight:bold;font-stretch:normal;font-size:18.43416023px;line-height:43.20506668px;font-family:Roboto;-inkscape-font-specification:'Roboto Bold';letter-spacing:0px;word-spacing:0px;fill:#ffffff;fill-opacity:1;stroke:none;stroke-width:1.72820258px;stroke-linecap:butt;stroke-linejoin:miter;stroke-opacity:1"
         aria-label="Set">
        <path
           id="path8423"
           style="font-style:normal;font-variant:normal;font-weight:bold;font-stretch:normal;font-size:17.28202629px;font-family:'Roboto Condensed';-inkscape-font-specification:'Roboto Condensed, Bold';letter-spacing:0px;fill:#ffffff;fill-opacity:1;stroke-width:1.72820258px"
           d="m 35.448813,64.491203 q 0,-0.751025 -0.38817,-1.130757 -0.379732,-0.388171 -1.392351,-0.801657 -1.848029,-0.700394 -2.658124,-1.637067 -0.810095,-0.94511 -0.810095,-2.227761 0,-1.552682 1.097004,-2.489354 1.105442,-0.945111 2.801578,-0.945111 1.130758,0 2.016799,0.480994 0.886041,0.472555 1.358597,1.34172 0.480994,0.869164 0.480994,1.974606 h -2.472478 q 0,-0.860726 -0.371293,-1.307966 -0.362855,-0.455678 -1.054811,-0.455678 -0.649764,0 -1.012619,0.388171 -0.362855,0.379732 -0.362855,1.029495 0,0.50631 0.405047,0.919796 0.405048,0.405047 1.434544,0.843849 1.797398,0.649763 2.607493,1.594874 0.818533,0.945111 0.818533,2.404969 0,1.603313 -1.021057,2.506232 -1.021057,0.902918 -2.776263,0.902918 -1.189827,0 -2.168692,-0.489432 -0.978865,-0.489433 -1.535805,-1.400789 -0.548502,-0.911357 -0.548502,-2.151815 h 2.489355 q 0,1.063249 0.413486,1.544243 0.413486,0.480994 1.350158,0.480994 1.299527,0 1.299527,-1.375474 z" />
        <path
           id="path8425"
           style="font-style:normal;font-variant:normal;font-weight:bold;font-stretch:normal;font-size:17.28202629px;font-family:'Roboto Condensed';-inkscape-font-specification:'Roboto Condensed, Bold';letter-spacing:0px;fill:#ffffff;fill-opacity:1;stroke-width:1.72820258px"
           d="m 43.178469,67.883476 q -1.83959,0 -2.869086,-1.097003 -1.029496,-1.097004 -1.029496,-3.139118 v -0.725711 q 0,-2.160253 0.945111,-3.333203 0.945111,-1.17295 2.708755,-1.17295 1.721452,0 2.590616,1.105442 0.869165,1.097004 0.886042,3.257257 v 1.17295 h -4.75087 q 0.05063,1.012619 0.44724,1.485174 0.396609,0.464117 1.223581,0.464117 1.198266,0 1.999922,-0.818533 l 0.936672,1.442981 q -0.438801,0.607572 -1.274211,0.987304 -0.835411,0.371293 -1.814276,0.371293 z m -1.502051,-5.603157 h 2.388093 v -0.2194 q -0.01688,-0.818534 -0.270032,-1.240458 -0.253155,-0.421925 -0.877603,-0.421925 -0.624448,0 -0.911357,0.44724 -0.27847,0.44724 -0.329101,1.434543 z" />
        <path
           id="path8427"
           style="font-style:normal;font-variant:normal;font-weight:bold;font-stretch:normal;font-size:17.28202629px;font-family:'Roboto Condensed';-inkscape-font-specification:'Roboto Condensed, Bold';letter-spacing:0px;fill:#ffffff;fill-opacity:1;stroke-width:1.72820258px"
           d="m 50.536833,56.339623 v 2.244638 h 1.22358 v 1.797398 h -1.22358 v 4.531469 q 0,0.540063 0.143454,0.742587 0.151893,0.202524 0.573817,0.202524 0.345978,0 0.565379,-0.05907 l -0.01688,1.856468 q -0.607571,0.227839 -1.316404,0.227839 -2.312147,0 -2.337462,-2.649685 v -4.852132 h -1.054811 v -1.797398 h 1.054811 v -2.244638 z" />
      </g>
    </g>
  </g>
</svg>
