<?xml version="1.0" encoding="UTF-8" standalone="no"?>
<svg
   xmlns:dc="http://purl.org/dc/elements/1.1/"
   xmlns:cc="http://creativecommons.org/ns#"
   xmlns:rdf="http://www.w3.org/1999/02/22-rdf-syntax-ns#"
   xmlns:svg="http://www.w3.org/2000/svg"
   xmlns="http://www.w3.org/2000/svg"
   xmlns:xlink="http://www.w3.org/1999/xlink"
   id="svg8"
   version="1.1"
   viewBox="0 0 16.933333 16.933334"
   height="64"
   width="64">
  <defs
     id="defs2">
    <color-profile
       id="color-profile2"
       xlink:href="/usr/share/color/icc/colord/sRGB.icc"
       name="sRGB" />
  </defs>
  <metadata
     id="metadata5">
    <rdf:RDF>
      <cc:Work
         rdf:about="">
        <dc:format>image/svg+xml</dc:format>
        <dc:type
           rdf:resource="http://purl.org/dc/dcmitype/StillImage" />
        <dc:title></dc:title>
        <dc:language>en</dc:language>
        <cc:license
           rdf:resource="http://unlicense.org/UNLICENSE" />
      </cc:Work>
    </rdf:RDF>
  </metadata>
  <g
     transform="translate(0,-280.06666)"
     id="layer1">
    <rect
       rx="2.1166668"
       y="281.58801"
       x="1.5213475"
       height="13.890638"
       width="13.890638"
       id="rect21962"
       style="opacity:1;fill:#000000;fill-opacity:0.3764706;fill-rule:evenodd;stroke:#ffffff;stroke-width:0.92604166;stroke-linejoin:round;stroke-miterlimit:4;stroke-dasharray:none;stroke-dashoffset:0;stroke-opacity:1" />
    <g
       transform="matrix(0.15309741,0,0,0.15309741,2.2114305,282.92032)"
       id="g1">
      <path
         id="rect26835-3"
         transform="matrix(1.7282026,0,0,1.7282026,-14.444598,-18.639505)"
         d="M 17 14 C 15.338 14 14 15.338 14 17 L 14 29 C 14 30.662 15.338 32 17 32 C 18.662 32 20 30.662 20 29 L 20 20 L 29 20 C 30.662 20 32 18.662 32 17 C 32 15.338 30.662 14 29 14 L 17 14 z "
         style="opacity:1;fill:#ffffff;fill-opacity:1;fill-rule:evenodd;stroke:none;stroke-width:0.56446207;stroke-linejoin:round;stroke-miterlimit:4;stroke-dasharray:none;stroke-dashoffset:0;stroke-opacity:1" />
      <path
         id="rect26835-5"
         transform="matrix(1.7282026,0,0,1.7282026,-14.444598,-18.639505)"
         d="M 47 32 C 45.338 32 44 33.338 44 35 L 44 44 L 35 44 C 33.338 44 32 45.338 32 47 C 32 48.662 33.338 50 35 50 L 47 50 C 47.20775 50 47.409824 49.979285 47.605469 49.939453 C 48.97498 49.660629 50 48.45425 50 47 L 50 35 C 50 33.338 48.662 32 47 32 z "
         style="opacity:1;fill:#ffffff;fill-opacity:1;fill-rule:evenodd;stroke:none;stroke-width:0.56446207;stroke-linejoin:round;stroke-miterlimit:4;stroke-dasharray:none;stroke-dashoffset:0;stroke-opacity:1" />
    </g>
  </g>
</svg>
