<?xml version="1.0" encoding="UTF-8" standalone="no"?>
<svg
   xmlns:dc="http://purl.org/dc/elements/1.1/"
   xmlns:cc="http://creativecommons.org/ns#"
   xmlns:rdf="http://www.w3.org/1999/02/22-rdf-syntax-ns#"
   xmlns:svg="http://www.w3.org/2000/svg"
   xmlns="http://www.w3.org/2000/svg"
   xmlns:xlink="http://www.w3.org/1999/xlink"
   id="svg8"
   version="1.1"
   viewBox="0 0 16.933333 16.933334"
   height="64"
   width="64">
  <defs
     id="defs2">
    <color-profile
       id="color-profile3"
       xlink:href="/usr/share/color/icc/colord/sRGB.icc"
       name="sRGB" />
  </defs>
  <metadata
     id="metadata5">
    <rdf:RDF>
      <cc:Work
         rdf:about="">
        <dc:format>image/svg+xml</dc:format>
        <dc:type
           rdf:resource="http://purl.org/dc/dcmitype/StillImage" />
        <dc:title></dc:title>
        <dc:language>en</dc:language>
        <cc:license
           rdf:resource="http://unlicense.org/UNLICENSE" />
      </cc:Work>
    </rdf:RDF>
  </metadata>
  <g
     transform="translate(0,-280.06666)"
     id="layer1">
    <rect
       rx="2.1166668"
       y="281.58801"
       x="1.5213475"
       height="13.890638"
       width="13.890638"
       id="rect21962"
       style="opacity:1;fill:#000000;fill-opacity:0.3764706;fill-rule:evenodd;stroke:#ffffff;stroke-width:0.92604166;stroke-linejoin:round;stroke-miterlimit:4;stroke-dasharray:none;stroke-dashoffset:0;stroke-opacity:1" />
    <g
       id="text31093"
       style="font-style:normal;font-weight:normal;font-size:10.58333397px;line-height:6.61458349px;font-family:sans-serif;letter-spacing:0px;word-spacing:0px;fill:#ffffff;fill-opacity:1;stroke:none;stroke-width:0.26458335px;stroke-linecap:butt;stroke-linejoin:miter;stroke-opacity:1"
       aria-label="3D">
      <path
         id="path8420"
         style="font-style:normal;font-variant:normal;font-weight:bold;font-stretch:normal;font-size:9.17222214px;line-height:0px;font-family:Roboto;-inkscape-font-specification:'Roboto Bold';fill:#ffffff;fill-opacity:1;stroke-width:0.26458335px"
         d="m 4.6665543,287.96006 h 0.6897081 q 0.4926487,0 0.7300157,-0.24632 0.2373671,-0.24633 0.2373671,-0.65388 0,-0.39412 -0.2373671,-0.61357 -0.2328884,-0.21946 -0.6449218,-0.21946 -0.3717258,0 -0.6225288,0.20602 -0.2508029,0.20154 -0.2508029,0.52848 H 3.2737022 q 0,-0.51057 0.2731961,-0.91364 0.2776747,-0.40756 0.7703233,-0.63597 0.4971273,-0.22841 1.0927843,-0.22841 1.0345622,0 1.6212619,0.49713 0.5866998,0.49265 0.5866998,1.3615 0,0.44786 -0.2731961,0.82407 -0.2731961,0.3762 -0.7165798,0.57774 0.5508707,0.19706 0.8195882,0.59118 0.273196,0.39412 0.273196,0.93155 0,0.86886 -0.6359646,1.39286 -0.631486,0.52399 -1.6750054,0.52399 -0.97634,0 -1.5988688,-0.51504 -0.6180501,-0.51504 -0.6180501,-1.3615 h 1.2943223 q 0,0.36725 0.2731961,0.60014 0.2776747,0.23289 0.6807509,0.23289 0.4612983,0 0.7210585,-0.24185 0.2642388,-0.24632 0.2642388,-0.6494 0,-0.97634 -1.0748698,-0.97634 H 4.6665543 Z" />
      <path
         id="path8422"
         style="font-style:normal;font-variant:normal;font-weight:bold;font-stretch:normal;font-size:9.17222214px;line-height:0px;font-family:Roboto;-inkscape-font-specification:'Roboto Bold';fill:#ffffff;fill-opacity:1;stroke-width:0.26458335px"
         d="m 8.7555381,291.79376 v -6.52087 h 2.0064239 q 0.859896,0 1.536168,0.38964 0.680751,0.38516 1.061434,1.10174 0.380683,0.7121 0.380683,1.62126 v 0.30007 q 0,0.90916 -0.376205,1.61678 -0.371726,0.70762 -1.052476,1.09726 -0.680751,0.38964 -1.536168,0.39412 z m 1.3435869,-5.43257 v 4.35322 h 0.649401 q 0.788238,0 1.20475,-0.51504 0.416512,-0.51504 0.425469,-1.47347 v -0.34485 q 0,-0.99425 -0.412033,-1.50482 -0.412034,-0.51504 -1.20475,-0.51504 z" />
    </g>
  </g>
</svg>
