<?xml version="1.0" encoding="UTF-8" standalone="no"?>
<svg
   xmlns:dc="http://purl.org/dc/elements/1.1/"
   xmlns:cc="http://creativecommons.org/ns#"
   xmlns:rdf="http://www.w3.org/1999/02/22-rdf-syntax-ns#"
   xmlns:svg="http://www.w3.org/2000/svg"
   xmlns="http://www.w3.org/2000/svg"
   xmlns:xlink="http://www.w3.org/1999/xlink"
   id="svg8"
   version="1.1"
   viewBox="0 0 16.933333 16.933334"
   height="64"
   width="64">
  <defs
     id="defs2">
    <color-profile
       id="color-profile2"
       xlink:href="/usr/share/color/icc/colord/sRGB.icc"
       name="sRGB" />
  </defs>
  <metadata
     id="metadata5">
    <rdf:RDF>
      <cc:Work
         rdf:about="">
        <dc:format>image/svg+xml</dc:format>
        <dc:type
           rdf:resource="http://purl.org/dc/dcmitype/StillImage" />
        <dc:title></dc:title>
        <dc:language>en</dc:language>
        <cc:license
           rdf:resource="http://unlicense.org/UNLICENSE" />
      </cc:Work>
    </rdf:RDF>
  </metadata>
  <g
     transform="translate(0,-280.06666)"
     id="layer1">
    <rect
       rx="2.1166668"
       y="281.58801"
       x="1.5213475"
       height="13.890638"
       width="13.890638"
       id="rect21962"
       style="opacity:1;fill:#000000;fill-opacity:0.3764706;fill-rule:evenodd;stroke:#ffffff;stroke-width:0.92604166;stroke-linejoin:round;stroke-miterlimit:4;stroke-dasharray:none;stroke-dashoffset:0;stroke-opacity:1" />
    <g
       transform="matrix(0.15309741,0,0,0.15309741,2.2114305,282.92032)"
       id="g1">
      <path
         d="m 69.815956,44.416513 c 0,3.265824 -2.647468,5.913283 -5.913295,5.913283 -3.265824,0 -5.913293,-2.647459 -5.913293,-5.913283 3.586793,-0.0089 8.146902,0.0089 11.826588,0 z m -44.546837,0 c 0,3.265824 -2.647473,5.913283 -5.913298,5.913283 -3.265823,0 -5.913297,-2.647459 -5.913297,-5.913283 3.586801,-0.0089 8.146911,0.0089 11.826595,0 z m 13.026713,-21.420356 -1.821983,0.006 c -3.204264,0.01788 -4.970515,0.09178 -6.773948,0.0882 -0.415669,-0.001 -1.23229,0.163301 -1.56313,0.260446 -1.590881,0.466359 -2.350148,1.157107 -2.604038,1.415825 l -6.215708,6.333692 h 36.060131 l -9.456717,-7.251307 c -1.187298,-0.7752 -1.489798,-0.781218 -3.270049,-0.807353 z m -18.978807,8.103977 c 0,0 -6.356651,0.974109 -11.1572303,1.711016 -0.777532,0.119495 -3.0885271,0.437304 -3.4961724,0.611034 -0.7805266,0.332411 -1.3721858,0.958851 -1.4020567,1.317308 -0.1525721,1.830749 -0.4493762,5.161207 -0.019668,7.489753 0.3761651,0.9028 0.7184607,1.258514 1.2808506,1.538777 0.5236957,0.261041 0.855958,0.427888 1.9291736,0.483135 3.9188842,0.20204 6.9907122,0.165386 6.9907122,0.165386 H 25.26923 l 32.720138,-3e-5 h 11.826588 c 0,0 5.710796,-0.147505 6.472031,-0.364951 0.441726,-0.104 0.802055,-1.029626 1.048966,-1.717899 0.655425,-1.826966 1.204936,-4.428592 1.339238,-5.469393 0.07607,-0.513382 -0.07176,-0.931465 -0.223949,-1.411711 -0.309768,-0.633443 -0.494275,-1.053494 -1.465768,-1.265188 -4.885309,-0.886768 -7.333063,-1.143309 -21.609332,-3.087088 0,0 -36.060128,-1.49e-4 -36.060128,0 z"
         style="opacity:1;fill:#ffffff;fill-opacity:1;fill-rule:evenodd;stroke:none;stroke-width:3.72916389;stroke-linejoin:round;stroke-miterlimit:4;stroke-dasharray:none;stroke-dashoffset:0;stroke-opacity:1"
         id="path40591-1-1" />
      <g
         id="text40878"
         style="font-style:normal;font-variant:normal;font-weight:bold;font-stretch:normal;font-size:18.43416023px;line-height:43.20506668px;font-family:Roboto;-inkscape-font-specification:'Roboto Bold';letter-spacing:0px;word-spacing:0px;fill:#ffffff;fill-opacity:1;stroke:none;stroke-width:1.72820258px;stroke-linecap:butt;stroke-linejoin:miter;stroke-opacity:1"
         aria-label="Routing">
        <path
           id="path8422"
           style="font-style:normal;font-variant:normal;font-weight:bold;font-stretch:normal;font-size:17.28202629px;font-family:'Roboto Condensed';-inkscape-font-specification:'Roboto Condensed, Bold';fill:#ffffff;fill-opacity:1;stroke-width:1.72820258px"
           d="m 18.727946,11.255249 h -1.232019 v 4.489276 H 15.015011 V 3.4580844 h 3.957651 q 1.864906,0 2.877525,0.9704263 1.021057,0.9619878 1.021057,2.742509 0,2.447162 -1.780521,3.4260263 l 2.151815,5.02934 v 0.118139 H 20.575975 Z M 17.495927,9.1878187 h 1.409227 q 0.742587,0 1.113881,-0.4894324 0.371293,-0.4978709 0.371293,-1.3248428 0,-1.8480292 -1.442981,-1.8480292 h -1.45142 z" />
        <path
           id="path8424"
           style="font-style:normal;font-variant:normal;font-weight:bold;font-stretch:normal;font-size:17.28202629px;font-family:'Roboto Condensed';-inkscape-font-specification:'Roboto Condensed, Bold';fill:#ffffff;fill-opacity:1;stroke-width:1.72820258px"
           d="m 24.196088,10.883955 q 0,-2.0758683 0.978864,-3.2572568 0.978865,-1.1813886 2.708756,-1.1813886 1.746767,0 2.725632,1.1813886 0.978864,1.1813885 0.978864,3.2741338 v 0.582256 q 0,2.084307 -0.970426,3.257257 -0.970426,1.17295 -2.717193,1.17295 -1.755206,0 -2.734071,-1.17295 -0.970426,-1.181389 -0.970426,-3.274134 z m 2.396531,0.599133 q 0,2.447162 1.307966,2.447162 1.206703,0 1.299527,-2.042115 l 0.0084,-1.00418 q 0,-1.2488964 -0.345978,-1.8480291 -0.345978,-0.6075713 -0.978864,-0.6075713 -0.607572,0 -0.95355,0.6075713 -0.337539,0.5991327 -0.337539,1.8480291 z" />
        <path
           id="path8426"
           style="font-style:normal;font-variant:normal;font-weight:bold;font-stretch:normal;font-size:17.28202629px;font-family:'Roboto Condensed';-inkscape-font-specification:'Roboto Condensed, Bold';fill:#ffffff;fill-opacity:1;stroke-width:1.72820258px"
           d="m 37.571092,14.909115 q -0.742587,1.00418 -1.991483,1.00418 -1.257335,0 -1.907099,-0.860726 -0.649764,-0.869165 -0.649764,-2.523109 V 6.6140794 h 2.388093 V 12.58853 q 0.01688,1.333281 0.886041,1.333281 0.818534,0 1.181389,-0.708833 V 6.6140794 h 2.404969 V 15.744525 H 37.6386 Z" />
        <path
           id="path8428"
           style="font-style:normal;font-variant:normal;font-weight:bold;font-stretch:normal;font-size:17.28202629px;font-family:'Roboto Condensed';-inkscape-font-specification:'Roboto Condensed, Bold';fill:#ffffff;fill-opacity:1;stroke-width:1.72820258px"
           d="m 44.364077,4.3694412 v 2.2446382 h 1.223581 v 1.7973983 h -1.223581 v 4.5314683 q 0,0.540064 0.143455,0.742588 0.151892,0.202523 0.573817,0.202523 0.345978,0 0.565379,-0.05907 l -0.01688,1.856468 q -0.607572,0.227839 -1.316405,0.227839 -2.312146,0 -2.337461,-2.649686 V 8.4114777 H 40.921174 V 6.6140794 h 1.054811 V 4.3694412 Z" />
        <path
           id="path8430"
           style="font-style:normal;font-variant:normal;font-weight:bold;font-stretch:normal;font-size:17.28202629px;font-family:'Roboto Condensed';-inkscape-font-specification:'Roboto Condensed, Bold';fill:#ffffff;fill-opacity:1;stroke-width:1.72820258px"
           d="M 49.393417,15.744525 H 46.996886 V 6.6140794 h 2.396531 z M 46.887186,4.2513024 q 0,-0.5569403 0.354417,-0.9113569 0.354416,-0.3544165 0.94511,-0.3544165 0.590695,0 0.945111,0.3544165 0.354417,0.3544166 0.354417,0.9113569 0,0.5485018 -0.354417,0.9113568 -0.345978,0.3628551 -0.945111,0.3628551 -0.599132,0 -0.953549,-0.3628551 -0.345978,-0.362855 -0.345978,-0.9113568 z" />
        <path
           id="path8432"
           style="font-style:normal;font-variant:normal;font-weight:bold;font-stretch:normal;font-size:17.28202629px;font-family:'Roboto Condensed';-inkscape-font-specification:'Roboto Condensed, Bold';fill:#ffffff;fill-opacity:1;stroke-width:1.72820258px"
           d="m 53.427014,6.6140794 0.06751,0.9029184 q 0.810095,-1.0716882 2.118061,-1.0716882 2.354339,0 2.421846,3.2994494 v 5.999766 H 55.637898 V 9.9219673 q 0,-0.7763411 -0.236277,-1.1223191 -0.227839,-0.3544166 -0.810095,-0.3544166 -0.649764,0 -1.012619,0.6666407 V 15.744525 H 51.182376 V 6.6140794 Z" />
        <path
           id="path8434"
           style="font-style:normal;font-variant:normal;font-weight:bold;font-stretch:normal;font-size:17.28202629px;font-family:'Roboto Condensed';-inkscape-font-specification:'Roboto Condensed, Bold';fill:#ffffff;fill-opacity:1;stroke-width:1.72820258px"
           d="m 59.460534,10.900832 q 0,-2.2446381 0.810095,-3.3500803 0.810095,-1.1054421 2.269953,-1.1054421 1.240458,0 1.915537,0.9788648 l 0.09282,-0.810095 h 2.151814 v 9.1304456 q 0,1.746767 -0.978864,2.666563 -0.978865,0.928233 -2.810017,0.928233 -0.751026,0 -1.577998,-0.303785 -0.826972,-0.295347 -1.232019,-0.759464 l 0.801656,-1.653944 q 0.33754,0.354416 0.877603,0.573817 0.540063,0.227839 1.021057,0.227839 0.801657,0 1.147635,-0.38817 0.354416,-0.379732 0.362855,-1.23202 v -0.784779 q -0.683518,0.89448 -1.780521,0.89448 -1.459859,0 -2.261515,-1.130758 -0.793218,-1.139196 -0.810095,-3.206626 z m 2.388092,0.599133 q 0,1.265773 0.329101,1.848029 0.329101,0.573817 1.046373,0.573817 0.734148,0 1.088565,-0.531625 V 9.0274874 q -0.371294,-0.5822558 -1.071688,-0.5822558 -0.708833,0 -1.054811,0.5822558 -0.33754,0.5822558 -0.33754,1.8733446 z" />
      </g>
      <path
         d="m 52.251435,69.894183 7.55555,-7.55555 0.223408,0.223408 -7.55555,7.55555 z m 0.223411,-15.334505 7.555549,7.55555 -0.223408,0.223408 -7.555549,-7.55555 z M 21.685439,62.338631 H 59.806982 V 62.43972 H 21.685439 Z"
         style="opacity:1;fill:none;fill-opacity:1;fill-rule:evenodd;stroke:#ffffff;stroke-width:3.14045858;stroke-linejoin:round;stroke-miterlimit:4;stroke-dasharray:none;stroke-dashoffset:0;stroke-opacity:1"
         id="rect40880-0-4" />
    </g>
  </g>
</svg>
