<?xml version="1.0" encoding="UTF-8" standalone="no"?>
<svg
   xmlns:dc="http://purl.org/dc/elements/1.1/"
   xmlns:cc="http://creativecommons.org/ns#"
   xmlns:rdf="http://www.w3.org/1999/02/22-rdf-syntax-ns#"
   xmlns:svg="http://www.w3.org/2000/svg"
   xmlns="http://www.w3.org/2000/svg"
   xmlns:xlink="http://www.w3.org/1999/xlink"
   viewBox="0 0 22 22"
   width="23.466667"
   version="1.0"
   id="svg2"
   height="23.466667">
  <metadata
     id="metadata2975">
    <rdf:RDF>
      <cc:Work
         rdf:about="">
        <dc:format>image/svg+xml</dc:format>
        <dc:type
           rdf:resource="http://purl.org/dc/dcmitype/StillImage" />
        <cc:license
           rdf:resource="http://web.resource.org/cc/PublicDomain" />
        <dc:language>en</dc:language>
        <dc:title></dc:title>
      </cc:Work>
    </rdf:RDF>
  </metadata>
  <defs
     id="defs4">
    <symbol
       viewBox="244.5 110 489 219.9"
       id="symbol-university">
      <path
         id="path4460"
         d="m 79,43 57,119 c 0,0 21,-96 104,-96 83,0 124,106 124,106 L 407,39 489,22 0,17 Z" />
      <path
         style="fill:none;stroke:#000000;stroke-width:20"
         id="path4462"
         d="M 94,176 73,215" />
      <path
         id="path4464"
         d="M 300,19 C 300,29.5 277.4,38 249.5,38 221.6,38 199,29.5 199,19 199,8.5 221.6,0 249.5,0 277.4,0 300,8.5 300,19 Z" />
      <path
         style="stroke:#000000;stroke-width:20"
         ill="none"
         id="path4466"
         d="M 112,216 96,178 64,88 C 64,88 55,80 60,53 65,26 76,29 76,29" />
    </symbol>
    <radialGradient
       xlink:href="#linearGradient829"
       r="101.58017"
       id="radialGradient874"
       gradientUnits="userSpaceOnUse"
       gradientTransform="scale(0.79354273,1.2601716)"
       fy="198.41902"
       fx="180.2453"
       cy="198.41902"
       cx="180.2453" />
    <linearGradient
       id="linearGradient829">
      <stop
         style="stop-color: rgb(255, 255, 255); stop-opacity: 0.341667;"
         offset="0.0000000"
         id="stop830" />
      <stop
         style="stop-color: rgb(255, 255, 255); stop-opacity: 0;"
         offset="1.0000000"
         id="stop831" />
    </linearGradient>
    <radialGradient
       xlink:href="#linearGradient829"
       r="46.394722"
       id="radialGradient832"
       gradientUnits="userSpaceOnUse"
       gradientTransform="scale(1.007004,0.99304475)"
       fy="167.47372"
       fx="360.85147"
       cy="167.47372"
       cx="360.85147" />
    <linearGradient
       id="linearGradient6826">
      <stop
         style="stop-color: rgb(255, 255, 255); stop-opacity: 0.341667;"
         offset="0.0000000"
         id="stop6828" />
      <stop
         style="stop-color: rgb(255, 255, 255); stop-opacity: 0;"
         offset="1.0000000"
         id="stop6830" />
    </linearGradient>
    <linearGradient
       y2="405.76871"
       y1="248.24467"
       xlink:href="#linearGradient855"
       x2="463.27057"
       x1="465.29425"
       spreadMethod="pad"
       id="linearGradient850"
       gradientUnits="userSpaceOnUse"
       gradientTransform="scale(0.74491357,1.3424376)" />
    <linearGradient
       id="linearGradient855">
      <stop
         style="stop-color: rgb(255, 255, 255); stop-opacity: 0;"
         offset="0.0000000"
         id="stop856" />
      <stop
         style="stop-color: rgb(255, 166, 23); stop-opacity: 0.733333;"
         offset="1.0000000"
         id="stop857" />
    </linearGradient>
    <linearGradient
       y2="231.6349"
       y1="120.96176"
       xlink:href="#linearGradient855"
       x2="155.40575"
       x1="157.80582"
       id="linearGradient854"
       gradientUnits="userSpaceOnUse"
       gradientTransform="scale(1.4586159,0.68558144)" />
    <linearGradient
       id="linearGradient6837">
      <stop
         style="stop-color: rgb(255, 255, 255); stop-opacity: 0;"
         offset="0.0000000"
         id="stop6839" />
      <stop
         style="stop-color: rgb(255, 166, 23); stop-opacity: 0.733333;"
         offset="1.0000000"
         id="stop6841" />
    </linearGradient>
    <clipPath
       id="clipoutline2"
       clipPathUnits="userSpaceOnUse">
      <path
         id="outline2"
         d="m 55.8,12 0.76,0.16 c 8.84,-2.94 28.68,8.64 24.26,18.96 -1.12,1.62 -0.93,4.5 0.42,6.31 L 56.43,62.25 c -1.39,-1.39 -4.48,-1.36 -5.9,0 L 9.5,101.63 c -3.74,3.59 -0.8,6.64 0.78,8.25 l 7.36,7.36 c 1.61,1.6 5.86,3.76 8.88,0.56 L 65.24,76.99 c 1.35,-1.42 1.36,-4.47 0,-5.87 0,0 0.01,-0.02 0,-0.02 L 90.15,46.2 c 2.63,2.37 5.113827,2.574854 7.47,1.93 4.55057,-1.245432 7.08725,3.206643 9.81,6.46 l -1.23,1.21 c -1.82,1.84 -1.65,4.94 0.39,6.98 2.04,2.04 5.15,2.21 6.97,0.39 l 8.14,-8.13 c 1.82,-1.84 1.65,-4.94 -0.4,-6.97 -1.84,-1.85 -4.51,-2.09 -6.37,-0.77 -5.58,-6.26 -2.65,-7.2 -10.01,-15.35 L 91.13,17.86 C 81.2,8.12 68.3,8.13 55.8,12 Z" />
    </clipPath>
    <style
       id="style13449">.ed66a0d7-e473-4f77-bfd6-95783d7d4273{fill:#4ebcbd;}</style>
  </defs>
  <g
     transform="matrix(0.04034262,0,0,0.04034262,-0.81373403,-0.67768516)"
     id="g1327">
    <path
       style="fill:#111111;fill-opacity:0;stroke:#eeeeee;stroke-width:3.40799999;stroke-opacity:0"
       id="path1329"
       d="M 66.275,1.768 C 24.94,1.768 1.704,23.139 1.704,66.804 v 450.123 c 0,40.844 20.895,62.229 62.192,62.229 H 515.92 c 41.307,0 62.229,-20.315 62.229,-62.229 V 66.804 c 0,-42.601 -20.922,-65.036 -63.521,-65.036 -0.004,0 -448.495,-0.143 -448.353,0 z" />
  </g>
  <g
     transform="matrix(48.14969,0,0,48.14969,-536.27327,-33.306752)"
     style="display:none;stroke:#757575;stroke-opacity:1"
     id="layer3">
    <rect
       y="1"
       x="1"
       width="10"
       style="display:inline;fill:none;stroke:#757575;stroke-width:0.1;stroke-miterlimit:4;stroke-dasharray:none;stroke-opacity:1"
       id="rect4134"
       height="10" />
    <rect
       y="2"
       x="2"
       width="8"
       style="display:inline;fill:none;stroke:#757575;stroke-width:0.1;stroke-miterlimit:4;stroke-dasharray:none;stroke-opacity:1"
       id="rect4136"
       height="8" />
  </g>
  <g
     transform="matrix(0.05637187,-0.00983492,0.00983492,0.05637187,-8.2801049,-2.944267)"
     id="g3338" />
  <g
     transform="matrix(0.93749998,0,0,0.93749998,-14.020412,-12.749523)"
     id="22cca3ea-b8d5-4a9a-b613-9c5f2612e820"
     data-name="Layer 2">
    <g
       style="display:inline"
       id="a5856f2d-ad70-4a19-933f-acdb44225d8e"
       data-name="Layer 1">
      <path
         d="m 32.554715,22.329769 c -1.060998,0 -0.716952,2.220956 -0.489124,3.971486 -0.036,-0.233592 -0.0052,-0.0015 0,0 0,0 1.02856,0.403704 1.342712,0.425022 -0.0022,-0.542328 -0.377083,-2.976563 0.154297,-2.976563 0.532908,0 1.519531,0.0628 1.519531,0.595704 0.271169,-0.333209 0.08062,-1.154835 0.06937,-1.675932 -0.840717,-0.281195 -1.845805,-0.339717 -2.596782,-0.339717 z m 0.853516,4.396484 c 7e-6,0.0016 0,0.0083 0,0.0098 0.002,-0.0026 0,-0.0065 0,-0.0098 z M 20.902372,22.329769 c -0.744506,0 -1.721005,0.03708 -2.558594,0.3125 -0.167644,0.548195 -0.03594,1.159826 0.0332,1.70703 l -0.002,-0.0039 c 0,-0.532908 0.986623,-0.595704 1.519531,-0.595703 0.531379,0 0.156447,2.434234 0.154297,2.976562 0.499809,0.208924 0.906407,-0.173405 1.335894,-0.469781 0.22687,-1.752426 0.587448,-3.926792 -0.482384,-3.926792 z m -0.853516,4.396481 c -0.03775,-0.04247 0,-0.006 0,0.0098 0,-0.0015 -6e-6,-0.0082 0,-0.0098 z m 0,0.0098 c 0.0072,0.01042 -0.0072,-0.01042 0,0 z m 9.79032,5.234215 c 0,1.371522 1.124572,2.4375 2.496094,2.4375 1.371522,0 2.496789,-1.063896 2.496789,-2.435418 z m 3.453125,0 c 0,0.532908 -0.424123,0.884766 -0.957031,0.884766 -0.532908,0 -0.953125,-0.347952 -0.953125,-0.88086 z m -14.723914,0.006 c 0,1.371522 1.131829,2.431512 2.503351,2.431512 1.371522,0 2.5,-1.069884 2.5,-2.441406 z m 3.45257,-0.006 c 0,0.532908 -0.416311,0.884766 -0.949219,0.884766 -0.532908,0 -0.949219,-0.351858 -0.949219,-0.884766 z m 2.957559,-6.40405 c -1.236244,0.103259 -2.270484,0.254662 -3.593764,0.690252 -0.354177,0.116586 -0.979989,0.333397 -1.335896,0.479583 l 0.570285,1.388759 c 6.097286,-2.504418 12.201171,-0.01367 12.201171,-0.01367 l 0.587919,-1.384886 c 0,0 -3.72834,-1.552721 -8.429715,-1.160036 z m 0.494168,-9.306759 c -1.199037,0.01144 -2.391771,0.08606 -3.523437,0.386719 -1.50889,0.400873 -2.913212,1.251041 -3.894532,2.828125 -0.520968,0.837248 -0.58357,1.027289 -0.902343,2.09375 -0.200118,0.669474 -0.200103,1.480947 -0.146485,2.427734 0.137222,2.423092 0.750965,5.677229 0.888672,7.361329 0.02925,0.350293 0.322316,0.619574 0.673828,0.61914 l 16.263672,-0.0039 c 0.354292,1.19e-4 0.625009,-0.269666 0.650391,-0.623047 0.118554,-1.669404 0.831256,-4.962834 1.001953,-7.386719 0.0636,-0.903152 0.07119,-1.680799 -0.130859,-2.337891 -0.331836,-1.079157 -0.383534,-1.255468 -0.941407,-2.113287 -1.019747,-1.568025 -2.470963,-2.402664 -4.007812,-2.808594 -1.536849,-0.405929 -3.171367,-0.423671 -4.732422,-0.439453 -0.398997,-0.004 -0.79954,-0.0077 -1.199219,-0.0039 z m 1.185547,1.355469 c 1.555721,0.01573 3.089958,0.04789 4.402344,0.394531 1.312386,0.346642 2.391626,0.966446 3.21875,2.238281 0.546633,0.840537 0.445577,0.675451 0.783203,1.773438 0.09601,0.31222 0.07837,1.489742 0.0196,2.324243 -0.144332,2.049513 -0.65573,4.343457 -0.861399,6.281226 H 19.166043 c -0.28862,-3.048104 -1.001791,-5.717907 -0.718749,-8.671875 0.322522,-1.079005 0.243909,-0.947963 0.753906,-1.767579 0.799178,-1.284363 1.823599,-1.896928 3.09375,-2.234375 1.270151,-0.337446 2.780477,-0.353892 4.363281,-0.33789 z"
         style="color:#000000;font-style:normal;font-variant:normal;font-weight:normal;font-stretch:normal;font-size:medium;line-height:normal;font-family:sans-serif;font-variant-ligatures:normal;font-variant-position:normal;font-variant-caps:normal;font-variant-numeric:normal;font-variant-alternates:normal;font-feature-settings:normal;text-indent:0;text-align:start;text-decoration:none;text-decoration-line:none;text-decoration-style:solid;text-decoration-color:#000000;letter-spacing:normal;word-spacing:normal;text-transform:none;writing-mode:lr-tb;direction:ltr;text-orientation:mixed;dominant-baseline:auto;baseline-shift:baseline;text-anchor:start;white-space:normal;shape-padding:0;clip-rule:nonzero;display:inline;overflow:visible;visibility:visible;opacity:1;isolation:auto;mix-blend-mode:normal;color-interpolation:sRGB;color-interpolation-filters:linearRGB;solid-color:#000000;solid-opacity:1;vector-effect:none;fill:#ad30c0;fill-opacity:1;fill-rule:nonzero;stroke:none;stroke-width:1.5517242;stroke-linecap:butt;stroke-linejoin:round;stroke-miterlimit:4;stroke-dasharray:none;stroke-dashoffset:0;stroke-opacity:1;color-rendering:auto;image-rendering:auto;shape-rendering:auto;text-rendering:auto;enable-background:accumulate"
         id="path8644-6-5" />
    </g>
  </g>
</svg>
